<svg xmlns="http://www.w3.org/2000/svg" xmlns:xlink="http://www.w3.org/1999/xlink" width="40" height="40" viewBox="0 0 40 40">
  <defs>
    <rect id="rect-1" width="40" height="40" x="0" y="0"/>
    <mask id="mask-2" maskContentUnits="userSpaceOnUse" maskUnits="userSpaceOnUse">
      <rect width="40" height="40" x="0" y="0" fill="black"/>
      <use fill="white" xlink:href="#rect-1"/>
    </mask>
  </defs>
  <g>
    <use fill="none" xlink:href="#rect-1"/>
    <g mask="url(#mask-2)">
      <rect width="1455" height="1005" x="-2.5" y="-2.5" fill="none" rx="0" ry="0"/>
      <path fill="rgb(255,0,0)" fill-rule="evenodd" d="M23.65649414 27.8999939C24.45654297 26.2000122 26.18151855 25 28.18151855 25c2.75 0 5 2.25 5 5s-2.25 5-5 5c-2.5250244 0-4.59997558-1.875-4.92504882-4.2999878l-9.82495118-7.125c-.92504882.875-2.1500244 1.4249878-3.5 1.4249878-2.75 0-5-2.25-5-5s2.25-5 5-5c1.3499756 0 2.57495118.5499878 3.5 1.4249878l9.82495118-7.125C23.58154297 6.875 25.65649414 5 28.18151855 5c2.75 0 5 2.25 5 5s-2.25 5-5 5c-2 0-3.72497558-1.2000122-4.5250244-2.8999939l-8.94995118 6.4750061c.125.4499817.22497558.9249878.22497558 1.4249878s-.09997558.9750061-.22497558 1.4249878l8.94995117 6.4750061zM30.68151855 10c0-1.375-1.125-2.5-2.5-2.5s-2.5 1.125-2.5 2.5 1.125 2.5 2.5 2.5 2.5-1.125 2.5-2.5zm-20.75 12.5c-1.375 0-2.5-1.125-2.5-2.5s1.125-2.5 2.5-2.5 2.5 1.125 2.5 2.5-1.125 2.5-2.5 2.5zm15.75 7.5c0 1.375 1.125 2.5 2.5 2.5s2.5-1.125 2.5-2.5-1.125-2.5-2.5-2.5-2.5 1.125-2.5 2.5z"/>
    </g>
  </g>
</svg>
